<?xml version="1.0" standalone="no"?>
<!DOCTYPE svg PUBLIC "-//W3C//DTD SVG 20010904//EN"
 "http://www.w3.org/TR/2001/REC-SVG-20010904/DTD/svg10.dtd">
<svg version="1.0" xmlns="http://www.w3.org/2000/svg"
 width="150.000000pt" height="150.000000pt" viewBox="0 0 150.000000 150.000000"
 preserveAspectRatio="xMidYMid meet">
<metadata>
Created by potrace 1.11, written by Peter Selinger 2001-2013
</metadata>
<g transform="translate(0.000000,150.000000) scale(0.100000,-0.100000)"
fill="#000000" stroke="none">
<path d="M455 1256 c-40 -18 -70 -52 -94 -107 -22 -49 -46 -181 -37 -204 6
-18 -11 -30 -44 -31 -50 -2 -58 -4 -64 -19 -9 -23 20 -43 59 -40 20 1 38 -2
42 -8 3 -5 6 -86 6 -179 -1 -186 -1 -188 -60 -188 -40 0 -65 -34 -36 -48 22
-10 273 -9 291 2 18 11 15 34 -6 45 -11 6 -40 9 -65 7 -28 -1 -47 2 -48 8 -1
6 -2 89 -2 184 -2 186 -5 176 53 173 14 -1 34 5 45 13 19 14 19 16 3 32 -10
10 -33 19 -51 19 -50 2 -54 8 -50 77 10 160 64 232 163 218 8 -1 21 -7 28 -12
10 -9 9 -14 -3 -28 -28 -31 -17 -72 23 -83 50 -12 80 64 48 121 -31 57 -128
80 -201 48z"/>
<path d="M972 885 c-49 -34 -51 -34 -54 -12 -3 20 -9 22 -79 25 -83 3 -129 -9
-129 -33 0 -20 13 -25 80 -28 l55 -2 5 -70 c6 -79 2 -466 -5 -473 -2 -3 -15
-6 -29 -7 -46 -5 -66 -16 -66 -36 0 -23 -10 -21 135 -24 122 -2 155 4 155 30
0 15 -20 22 -80 28 l-35 3 0 82 c-1 45 1 82 3 82 1 0 15 -6 30 -14 99 -49 231
-6 282 93 19 39 38 125 34 157 -11 90 -18 117 -42 153 -34 52 -91 81 -159 81
-42 0 -60 -6 -101 -35z m168 -47 c57 -36 75 -191 32 -280 -30 -61 -87 -92
-146 -78 -50 11 -74 35 -90 91 -41 139 41 300 146 285 20 -3 46 -11 58 -18z"/>
</g>
</svg>
